<svg width="134" height="40" viewBox="0 0 134 40" fill="none" xmlns="http://www.w3.org/2000/svg">
<path d="M49.12 25V15.06H50.688V23.614H56.022V25H49.12ZM60.3214 25.14C59.5561 25.14 58.8888 24.9673 58.3194 24.622C57.7594 24.2673 57.3254 23.8053 57.0174 23.236C56.7094 22.6573 56.5554 22.0273 56.5554 21.346C56.5554 20.6647 56.7094 20.0393 57.0174 19.47C57.3348 18.8913 57.7734 18.4293 58.3334 18.084C58.9028 17.7293 59.5654 17.552 60.3214 17.552C61.0774 17.552 61.7354 17.7293 62.2954 18.084C62.8648 18.4293 63.3034 18.8913 63.6114 19.47C63.9288 20.0393 64.0874 20.6647 64.0874 21.346C64.0874 22.0273 63.9334 22.6573 63.6254 23.236C63.3174 23.8053 62.8788 24.2673 62.3094 24.622C61.7494 24.9673 61.0868 25.14 60.3214 25.14ZM58.1374 21.36C58.1374 21.8267 58.2354 22.2467 58.4314 22.62C58.6274 22.9933 58.8888 23.2873 59.2154 23.502C59.5421 23.7167 59.9108 23.824 60.3214 23.824C60.7228 23.824 61.0868 23.7167 61.4134 23.502C61.7494 23.278 62.0154 22.9793 62.2114 22.606C62.4074 22.2327 62.5054 21.8127 62.5054 21.346C62.5054 20.8793 62.4074 20.4593 62.2114 20.086C62.0154 19.7127 61.7494 19.4187 61.4134 19.204C61.0868 18.98 60.7228 18.868 60.3214 18.868C59.9201 18.868 59.5514 18.98 59.2154 19.204C58.8888 19.4187 58.6274 19.7173 58.4314 20.1C58.2354 20.4733 58.1374 20.8933 58.1374 21.36ZM68.3513 25.07C67.6886 25.07 67.1053 24.8973 66.6013 24.552C66.1066 24.2067 65.7146 23.754 65.4253 23.194C65.1453 22.6247 65.0053 22.0087 65.0053 21.346C65.0053 20.6553 65.15 20.0207 65.4393 19.442C65.7286 18.8633 66.1253 18.406 66.6293 18.07C67.1426 17.7247 67.7353 17.552 68.4073 17.552C68.9953 17.552 69.5086 17.692 69.9473 17.972C70.3953 18.252 70.764 18.616 71.0533 19.064V17.678H72.4113V24.79C72.4113 25.4993 72.2386 26.1013 71.8933 26.596C71.5573 27.0907 71.0953 27.4687 70.5073 27.73C69.9193 27.9913 69.2566 28.122 68.5193 28.122C67.7073 28.122 67.0306 27.982 66.4893 27.702C65.9573 27.422 65.5093 27.0393 65.1453 26.554L66.0133 25.742C66.2933 26.134 66.6526 26.4327 67.0913 26.638C67.5393 26.8433 68.0153 26.946 68.5193 26.946C68.9393 26.946 69.3266 26.8667 69.6813 26.708C70.0453 26.5587 70.3346 26.3253 70.5493 26.008C70.764 25.6907 70.8713 25.2847 70.8713 24.79V23.67C70.61 24.1087 70.2506 24.454 69.7933 24.706C69.336 24.9487 68.8553 25.07 68.3513 25.07ZM68.8553 23.824C69.1633 23.824 69.4573 23.7587 69.7373 23.628C70.0173 23.488 70.2553 23.306 70.4513 23.082C70.6566 22.858 70.7966 22.62 70.8713 22.368V20.45C70.6846 19.9833 70.3906 19.6053 69.9893 19.316C69.5973 19.0173 69.182 18.868 68.7433 18.868C68.2953 18.868 67.908 18.9893 67.5813 19.232C67.264 19.4747 67.0166 19.792 66.8393 20.184C66.662 20.5667 66.5733 20.968 66.5733 21.388C66.5733 21.836 66.6713 22.2467 66.8673 22.62C67.0726 22.984 67.348 23.278 67.6933 23.502C68.0386 23.7167 68.426 23.824 68.8553 23.824ZM74.258 16.474V14.78H75.798V16.474H74.258ZM74.258 25V17.678H75.798V25H74.258ZM84.2146 25H82.6746V20.898C82.6746 20.2073 82.5626 19.708 82.3386 19.4C82.1239 19.0827 81.8019 18.924 81.3726 18.924C81.0739 18.924 80.7753 18.9987 80.4766 19.148C80.1873 19.2973 79.9259 19.5027 79.6926 19.764C79.4593 20.0253 79.2913 20.3193 79.1886 20.646V25H77.6486V17.678H79.0486V19.148C79.3286 18.6627 79.7346 18.2753 80.2666 17.986C80.7986 17.6967 81.3866 17.552 82.0306 17.552C82.6093 17.552 83.0573 17.692 83.3746 17.972C83.6919 18.2427 83.9113 18.602 84.0326 19.05C84.1539 19.498 84.2146 19.9927 84.2146 20.534V25Z" fill="#2A7AE4"/>
<rect x="1" y="0.5" width="132" height="39" stroke="#2A7AE4"/>
</svg>
