<svg width="24" height="18" viewBox="0 0 24 18" fill="none" xmlns="http://www.w3.org/2000/svg">
<path d="M23.5432 13.7718L22.2531 4.83516C21.9216 2.53683 19.9213 0.833496 17.5658 0.833496H6.84199C4.48654 0.833496 2.48618 2.53683 2.15476 4.83516L0.864586 13.7718C0.604184 15.5685 2.01272 17.1668 3.84737 17.1668C4.65225 17.1668 5.40978 16.8518 5.97793 16.2918L8.65297 13.6668H15.7548L18.418 16.2918C18.9862 16.8518 19.7556 17.1668 20.5486 17.1668C22.3951 17.1668 23.8036 15.5685 23.5432 13.7718ZM11.0203 7.8335H8.65297V10.1668H7.46933V7.8335H5.10204V6.66683H7.46933V4.3335H8.65297V6.66683H11.0203V7.8335ZM15.7548 6.66683C15.1038 6.66683 14.5712 6.14183 14.5712 5.50016C14.5712 4.8585 15.1038 4.3335 15.7548 4.3335C16.4058 4.3335 16.9385 4.8585 16.9385 5.50016C16.9385 6.14183 16.4058 6.66683 15.7548 6.66683ZM18.1221 10.1668C17.4711 10.1668 16.9385 9.64183 16.9385 9.00016C16.9385 8.3585 17.4711 7.8335 18.1221 7.8335C18.7731 7.8335 19.3058 8.3585 19.3058 9.00016C19.3058 9.64183 18.7731 10.1668 18.1221 10.1668Z" fill="#2A7AE4"/>
</svg>
